<?xml version="1.0" encoding="utf-8"?>
<!-- Generator: Adobe Illustrator 18.1.1, SVG Export Plug-In . SVG Version: 6.00 Build 0)  -->
<!DOCTYPE svg PUBLIC "-//W3C//DTD SVG 1.1//EN" "http://www.w3.org/Graphics/SVG/1.1/DTD/svg11.dtd">
<svg version="1.1" id="Layer_1" xmlns="http://www.w3.org/2000/svg" xmlns:xlink="http://www.w3.org/1999/xlink" x="0px" y="0px"
	 width="87px" height="100px" viewBox="0 0 87 100" style="enable-background:new 0 0 87 100;" xml:space="preserve">
<style type="text/css">
	.st0{fill:#EEF0F3;}
	.st1{fill:#A4DCED;}
	.st2{fill:none;stroke:#0192C8;stroke-width:1.7442;stroke-linecap:round;stroke-linejoin:round;stroke-miterlimit:10;}
	.st3{fill:#0192C8;}
</style>
<polygon class="st0" points="0.2,25 43.5,0 86.8,25 86.8,75 43.5,100 0.2,75 "/>
<g>
	<path class="st1" d="M66.2,56.3H21V40.6c0-0.7,0.6-1.3,1.3-1.3h42.5c0.8,0,1.4,0.6,1.4,1.4V56.3z"/>
	<path class="st2" d="M61,70.5H26.2c-4.8,0-8.6-3.9-8.6-8.6V39.2c0-1.7,1.4-3.1,3.1-3.1h45.8c1.7,0,3.1,1.4,3.1,3.1v22.7
		C69.6,66.7,65.7,70.5,61,70.5z"/>
	<path class="st1" d="M65.8,62.8c-0.7,2.9-3.3,5-6.4,5H27.7c-3.1,0-5.8-2.2-6.5-5.1"/>
	<path class="st2" d="M51.8,36.1H36.3v-3.5c0-1.7,1.4-3.2,3.2-3.2h9.2c1.7,0,3.2,1.4,3.2,3.2V36.1z"/>
	<line class="st2" x1="17.6" y1="59.6" x2="69.6" y2="59.6"/>
	<rect x="53.2" y="54.9" class="st3" width="3.6" height="8.8"/>
	<rect x="30.4" y="54.9" class="st3" width="3.6" height="8.8"/>
</g>
</svg>
