<?xml version="1.0" encoding="UTF-8"?>
<svg width="20px" height="20px" viewBox="0 0 20 20" version="1.1" xmlns="http://www.w3.org/2000/svg" xmlns:xlink="http://www.w3.org/1999/xlink">
    <!-- Generator: Sketch 50 (54983) - http://www.bohemiancoding.com/sketch -->
    <title>noun_expand_1181747</title>
    <desc>Created with Sketch.</desc>
    <defs></defs>
    <g id="Page-1" stroke="none" stroke-width="1" fill="none" fill-rule="evenodd">
        <g id="noun_expand_1181747" fill="#FA7676" fill-rule="nonzero">
            <g id="Group">
                <path d="M8.90909091,0.181818182 C10.3333333,0.0303030303 11.7878788,0.212121212 13.1212121,0.666666667 C14.2424242,1.06060606 15.2727273,1.63636364 16.1818182,2.39393939 C16.969697,3.03030303 17.6363636,3.81818182 18.1818182,4.66666667 C18.969697,5.87878788 19.4545455,7.27272727 19.6363636,8.6969697 C19.6969697,9.06060606 19.6969697,9.42424242 19.7272727,9.78787879 L19.7272727,10 C19.6969697,10.3636364 19.6969697,10.7272727 19.6363636,11.1212121 C19.4545455,12.5151515 19,13.8484848 18.2424242,15.030303 C17.6666667,15.969697 16.9090909,16.8484848 16.030303,17.5454545 C15.1212121,18.2727273 14.0606061,18.8484848 12.9393939,19.2121212 C12.2727273,19.4242424 11.6060606,19.5757576 10.9090909,19.6363636 C10.6060606,19.6666667 10.3030303,19.6969697 10,19.6969697 L9.78787879,19.6969697 C9.45454545,19.6666667 9.12121212,19.6666667 8.78787879,19.6363636 C7.72727273,19.5151515 6.66666667,19.2121212 5.6969697,18.7575758 C3.96969697,17.9393939 2.51515152,16.6060606 1.51515152,14.969697 C0.818181818,13.8181818 0.363636364,12.5454545 0.212121212,11.2121212 C-0.0303030303,9.45454545 0.212121212,7.63636364 0.939393939,6 C1.42424242,4.90909091 2.09090909,3.90909091 2.93939394,3.06060606 C3.75757576,2.24242424 4.72727273,1.54545455 5.75757576,1.06060606 C6.75757576,0.575757576 7.81818182,0.303030303 8.90909091,0.181818182 Z M9.72727273,1.36363636 C8.33333333,1.39393939 6.96969697,1.75757576 5.75757576,2.42424242 C4.6969697,3 3.78787879,3.81818182 3.06060606,4.78787879 C2.36363636,5.72727273 1.84848485,6.81818182 1.57575758,7.93939394 C1.21212121,9.48484848 1.27272727,11.0909091 1.78787879,12.6060606 C2.15151515,13.7272727 2.78787879,14.7878788 3.60606061,15.6666667 C4.27272727,16.4242424 5.09090909,17.030303 6,17.4848485 C7.36363636,18.2121212 8.93939394,18.5151515 10.4848485,18.4242424 C11.7878788,18.3333333 13.0909091,17.9393939 14.2424242,17.2727273 C15.3030303,16.6363636 16.2424242,15.7878788 16.9393939,14.7878788 C17.6666667,13.7575758 18.1515152,12.5454545 18.3636364,11.3030303 C18.6060606,9.78787879 18.4545455,8.21212121 17.9090909,6.78787879 C17.5454545,5.87878788 17.0606061,5.06060606 16.4242424,4.3030303 C15.6969697,3.45454545 14.8181818,2.75757576 13.8181818,2.27272727 C12.5454545,1.66666667 11.1212121,1.33333333 9.72727273,1.36363636 Z" id="Shape"></path>
                <path d="M13.2121212,8.15151515 C13.4242424,7.93939394 13.7878788,7.93939394 14.030303,8.15151515 C14.2424242,8.33333333 14.3030303,8.66666667 14.1818182,8.90909091 C14.1212121,9 14.030303,9.09090909 13.969697,9.18181818 C12.8181818,10.3333333 11.6363636,11.5151515 10.4848485,12.6666667 C10.4242424,12.7272727 10.3333333,12.8181818 10.2424242,12.8484848 C10.0606061,12.969697 9.78787879,12.969697 9.60606061,12.8484848 C9.51515152,12.7878788 9.45454545,12.7272727 9.36363636,12.6363636 C8.18181818,11.4545455 6.96969697,10.2424242 5.78787879,9.06060606 C5.66666667,8.93939394 5.60606061,8.75757576 5.60606061,8.57575758 C5.63636364,8.33333333 5.78787879,8.15151515 6,8.06060606 C6.18181818,8 6.42424242,8.03030303 6.57575758,8.15151515 C6.63636364,8.21212121 6.6969697,8.27272727 6.75757576,8.3030303 C7.78787879,9.36363636 8.84848485,10.3939394 9.90909091,11.4545455 C11.030303,10.3636364 12.1212121,9.24242424 13.2121212,8.15151515 Z" id="Shape"></path>
            </g>
        </g>
    </g>
</svg>