<svg id="Layer_1" data-name="Layer 1" xmlns="http://www.w3.org/2000/svg" viewBox="0 0 180 19.96"><defs><style>.cls-1{fill:#eb0029;}.cls-2{fill:#231f20;}</style></defs><title>true-logo</title><g id="_Group_" data-name="&lt;Group&gt;"><g id="_Group_2" data-name="&lt;Group&gt;"><g id="_Group_3" data-name="&lt;Group&gt;"><polygon id="_Path_" data-name="&lt;Path&gt;" class="cls-1" points="19.96 19.96 11.98 19.96 11.98 7.99 0 7.99 0 0 19.96 0 19.96 19.96"/></g><g id="_Group_4" data-name="&lt;Group&gt;"><rect id="_Path_2" data-name="&lt;Path&gt;" class="cls-1" x="23.96" width="7.99" height="7.98"/></g></g><path id="_Compound_Path_" data-name="&lt;Compound Path&gt;" class="cls-1" d="M178.72,99.93h-5v5.68c0,1.76.93,2.44,2.07,2.44a5.23,5.23,0,0,0,2.63-.89l1.13,2.28a7.05,7.05,0,0,1-4,1.29c-3,0-4.69-1.59-4.69-5.07V99.93h-2.6V97.35h2.6v-4h2.86v4h5v2.59Z" transform="translate(-128.64 -90.78)"/><path id="_Compound_Path_2" data-name="&lt;Compound Path&gt;" class="cls-1" d="M191,97.37l-0.68,2.82a5.09,5.09,0,0,0-2.17-.48c-1.81,0-3.11,1.28-3.11,3.5v7.18h-2.85V97.35H185v1.47A4.36,4.36,0,0,1,188.8,97,5.7,5.7,0,0,1,191,97.37Z" transform="translate(-128.64 -90.78)"/><path id="_Compound_Path_3" data-name="&lt;Compound Path&gt;" class="cls-1" d="M205.73,104.87c0,4.16-3,5.87-6,5.87s-6-1.72-6-5.87V97.35h2.86v7.26c0,2.52,1.4,3.45,3.19,3.45s3.19-.93,3.19-3.45V97.35h2.86v7.52Z" transform="translate(-128.64 -90.78)"/><path id="_Compound_Path_4" data-name="&lt;Compound Path&gt;" class="cls-1" d="M221.79,103.86c0,0.37,0,.74-0.05,1.06h-9.65a3.69,3.69,0,0,0,3.88,3.32,6.24,6.24,0,0,0,3.77-1.38l1.42,2a7.86,7.86,0,0,1-5.37,1.84c-3.91,0-6.68-2.72-6.68-6.87s2.66-6.87,6.5-6.87C219.27,97,221.77,99.78,221.79,103.86Zm-9.69-1.1h6.77c-0.31-2-1.5-3.22-3.31-3.22C213.53,99.54,212.4,100.85,212.1,102.75Z" transform="translate(-128.64 -90.78)"/><path id="_Compound_Path_5" data-name="&lt;Compound Path&gt;" class="cls-2" d="M234.2,100.62a8.42,8.42,0,0,0-4-1.12c-1.55,0-2.47.63-2.47,1.55s1,1.17,2.15,1.35l1.35,0.2c2.85,0.41,4.54,1.62,4.54,3.86,0,2.51-2.18,4.26-5.94,4.26a9.61,9.61,0,0,1-5.6-1.68l1.32-2.14a6.56,6.56,0,0,0,4.31,1.34c1.95,0,3-.61,3-1.59,0-.74-0.71-1.23-2.26-1.44l-1.36-.18c-2.89-.4-4.43-1.73-4.43-3.83,0-2.59,2.07-4.18,5.4-4.18a9.92,9.92,0,0,1,5.29,1.38Z" transform="translate(-128.64 -90.78)"/><path id="_Compound_Path_6" data-name="&lt;Compound Path&gt;" class="cls-2" d="M250.82,103.86c0,0.37,0,.74-0.05,1.06h-9.65a3.69,3.69,0,0,0,3.88,3.32,6.24,6.24,0,0,0,3.77-1.38l1.42,2a7.86,7.86,0,0,1-5.37,1.84c-3.91,0-6.68-2.72-6.68-6.87s2.66-6.87,6.5-6.87C248.3,97,250.81,99.78,250.82,103.86Zm-9.69-1.1h6.77c-0.31-2-1.5-3.22-3.31-3.22C242.57,99.54,241.43,100.85,241.13,102.75Z" transform="translate(-128.64 -90.78)"/><path id="_Compound_Path_7" data-name="&lt;Compound Path&gt;" class="cls-2" d="M266.89,110.4H264v-1.57a5,5,0,0,1-4.1,1.91,6.88,6.88,0,0,1,0-13.73,5,5,0,0,1,4.1,1.92V97.35h2.85V110.4Zm-10.55-6.53a3.94,3.94,0,1,0,3.94-4.18A3.91,3.91,0,0,0,256.34,103.87Z" transform="translate(-128.64 -90.78)"/><path id="_Compound_Path_8" data-name="&lt;Compound Path&gt;" class="cls-2" d="M280.16,97.37l-0.68,2.82a5.09,5.09,0,0,0-2.17-.48c-1.81,0-3.11,1.28-3.11,3.5v7.18h-2.85V97.35h2.82v1.47A4.36,4.36,0,0,1,278,97,5.7,5.7,0,0,1,280.16,97.37Z" transform="translate(-128.64 -90.78)"/><path id="_Compound_Path_9" data-name="&lt;Compound Path&gt;" class="cls-2" d="M293.32,99.09L291.49,101a4.37,4.37,0,0,0-3.13-1.35,4.2,4.2,0,0,0,0,8.37,4.75,4.75,0,0,0,3.2-1.36l1.76,2a6.28,6.28,0,0,1-4.88,2.08,6.87,6.87,0,1,1,0-13.73A6.24,6.24,0,0,1,293.32,99.09Z" transform="translate(-128.64 -90.78)"/><path id="_Compound_Path_10" data-name="&lt;Compound Path&gt;" class="cls-2" d="M299.37,98.9a4.66,4.66,0,0,1,4-1.89,5,5,0,0,1,5.3,5.19v8.2h-2.86v-7.26c0-2.19-1.13-3.42-3-3.42a3.23,3.23,0,0,0-3.38,3.45v7.23H296.5V90.78h2.86V98.9Z" transform="translate(-128.64 -90.78)"/></g></svg>