<svg id="Layer_1" data-name="Layer 1" xmlns="http://www.w3.org/2000/svg" viewBox="0 0 180 19.96"><defs><style>.cls-1{fill:#eb0029;}.cls-2{fill:#fff;}</style></defs><title>true-logo-reverse</title><g id="_Group_" data-name="&lt;Group&gt;"><g id="_Group_2" data-name="&lt;Group&gt;"><g id="_Group_3" data-name="&lt;Group&gt;"><polygon id="_Path_" data-name="&lt;Path&gt;" class="cls-1" points="19.96 19.96 11.98 19.96 11.98 7.99 0 7.99 0 0 19.96 0 19.96 19.96"/></g><g id="_Group_4" data-name="&lt;Group&gt;"><rect id="_Path_2" data-name="&lt;Path&gt;" class="cls-1" x="23.96" width="7.99" height="7.98"/></g></g><path id="_Compound_Path_" data-name="&lt;Compound Path&gt;" class="cls-1" d="M175.58,38.57h-5v5.68c0,1.76.93,2.44,2.07,2.44a5.23,5.23,0,0,0,2.63-.89l1.13,2.28a7.05,7.05,0,0,1-4,1.29c-3,0-4.69-1.59-4.69-5.07V38.57h-2.6V36h2.6V32h2.86v4h5v2.59Z" transform="translate(-125.5 -29.41)"/><path id="_Compound_Path_2" data-name="&lt;Compound Path&gt;" class="cls-1" d="M187.85,36l-0.68,2.82a5.09,5.09,0,0,0-2.17-.48c-1.81,0-3.11,1.28-3.11,3.5V49h-2.85V36h2.82v1.47a4.36,4.36,0,0,1,3.79-1.81A5.7,5.7,0,0,1,187.85,36Z" transform="translate(-125.5 -29.41)"/><path id="_Compound_Path_3" data-name="&lt;Compound Path&gt;" class="cls-1" d="M202.58,43.5c0,4.16-3,5.87-6,5.87s-6-1.72-6-5.87V36h2.86v7.26c0,2.52,1.4,3.45,3.19,3.45s3.19-.93,3.19-3.45V36h2.86V43.5Z" transform="translate(-125.5 -29.41)"/><path id="_Compound_Path_4" data-name="&lt;Compound Path&gt;" class="cls-1" d="M218.64,42.49c0,0.37,0,.74-0.05,1.06h-9.65a3.69,3.69,0,0,0,3.88,3.32,6.24,6.24,0,0,0,3.77-1.38l1.42,2a7.86,7.86,0,0,1-5.37,1.84c-3.91,0-6.68-2.72-6.68-6.87s2.66-6.87,6.5-6.87C216.12,35.64,218.63,38.42,218.64,42.49ZM209,41.39h6.77c-0.31-2-1.5-3.22-3.31-3.22C210.39,38.17,209.26,39.48,209,41.39Z" transform="translate(-125.5 -29.41)"/><path id="_Compound_Path_5" data-name="&lt;Compound Path&gt;" class="cls-2" d="M231.06,39.25a8.42,8.42,0,0,0-4-1.12c-1.55,0-2.47.63-2.47,1.55s1,1.17,2.15,1.35l1.35,0.2c2.85,0.41,4.54,1.62,4.54,3.86,0,2.51-2.18,4.26-5.94,4.26a9.61,9.61,0,0,1-5.6-1.68l1.32-2.14a6.56,6.56,0,0,0,4.31,1.34c1.95,0,3-.61,3-1.59,0-.74-0.71-1.23-2.26-1.44L226,43.66c-2.89-.4-4.43-1.73-4.43-3.83,0-2.59,2.07-4.18,5.4-4.18A9.92,9.92,0,0,1,232.28,37Z" transform="translate(-125.5 -29.41)"/><path id="_Compound_Path_6" data-name="&lt;Compound Path&gt;" class="cls-2" d="M247.68,42.49c0,0.37,0,.74-0.05,1.06H238a3.69,3.69,0,0,0,3.88,3.32,6.24,6.24,0,0,0,3.77-1.38l1.42,2a7.86,7.86,0,0,1-5.37,1.84c-3.91,0-6.68-2.72-6.68-6.87s2.66-6.87,6.5-6.87C245.16,35.64,247.66,38.42,247.68,42.49ZM238,41.39h6.77c-0.31-2-1.5-3.22-3.31-3.22C239.42,38.17,238.29,39.48,238,41.39Z" transform="translate(-125.5 -29.41)"/><path id="_Compound_Path_7" data-name="&lt;Compound Path&gt;" class="cls-2" d="M263.74,49h-2.85V47.47a5,5,0,0,1-4.1,1.91,6.55,6.55,0,0,1-6.53-6.87,6.55,6.55,0,0,1,6.53-6.87,5,5,0,0,1,4.1,1.92V36h2.85V49ZM253.2,42.51a3.94,3.94,0,1,0,7.88,0A3.94,3.94,0,1,0,253.2,42.51Z" transform="translate(-125.5 -29.41)"/><path id="_Compound_Path_8" data-name="&lt;Compound Path&gt;" class="cls-2" d="M277,36l-0.68,2.82a5.09,5.09,0,0,0-2.17-.48c-1.81,0-3.11,1.28-3.11,3.5V49h-2.85V36H271v1.47a4.36,4.36,0,0,1,3.79-1.81A5.7,5.7,0,0,1,277,36Z" transform="translate(-125.5 -29.41)"/><path id="_Compound_Path_9" data-name="&lt;Compound Path&gt;" class="cls-2" d="M290.17,37.72l-1.83,1.95a4.37,4.37,0,0,0-3.13-1.35,3.9,3.9,0,0,0-3.86,4.18,3.9,3.9,0,0,0,3.86,4.18,4.75,4.75,0,0,0,3.2-1.36l1.76,2a6.28,6.28,0,0,1-4.88,2.08,6.58,6.58,0,0,1-6.87-6.87,6.58,6.58,0,0,1,6.87-6.87A6.24,6.24,0,0,1,290.17,37.72Z" transform="translate(-125.5 -29.41)"/><path id="_Compound_Path_10" data-name="&lt;Compound Path&gt;" class="cls-2" d="M296.22,37.53a4.66,4.66,0,0,1,4-1.89,5,5,0,0,1,5.3,5.19V49h-2.86V41.77c0-2.19-1.13-3.42-3-3.42a3.23,3.23,0,0,0-3.38,3.45V49h-2.86V29.41h2.86v8.12Z" transform="translate(-125.5 -29.41)"/></g></svg>